<svg xmlns="http://www.w3.org/2000/svg" height="800" width="1200" xml:space="preserve" y="0" x="0" id="Layer_1" version="1.1" viewBox="-24.465 -10.775 212.03 64.65"><style id="style4955" type="text/css">.st0{fill:#008fff}</style><path transform="translate(-2.2 -1.7)" id="polygon4959" class="st0" d="M97.2 13.7v5l16.1-6.5v-4L97.2 1.7v4.8l9.4 3.7z"/><path id="path4961" d="M8.7 23.4c-4.5 0-7.8 2-8.1 6.2h5v-.1c.1-1.4 1.4-2.4 2.8-2.3 1.9 0 2.8 1.1 2.8 3v.9H8.9C4 31.1 0 32.6 0 37.3v.2C0 41.3 2.8 43 6.2 43c2.1.1 4-.9 5.2-2.5v2.2h5.1V30.1c-.1-4.8-3.4-6.7-7.8-6.7zM7.6 39.3c-1.8 0-2.6-.9-2.6-2.2v-.2c0-1.7 1.3-2.4 3.9-2.4H11v1.8c.1 2-1.6 3-3.4 3z"/><path id="path4963" d="M28.5 39.1c-2.5 0-3.8-1.7-3.8-5.5V33c0-3.7 1.5-5.5 3.8-5.5 1.8 0 2.8 1.2 3.1 3h5c-.4-4.9-4-7.1-8.2-7.1-5 0-9 3.4-9 9.8v.2c0 6.4 3.8 9.6 9 9.6 5.1 0 8-3.1 8.4-7.3H32c-.4 2.1-1.7 3.4-3.5 3.4z"/><path id="path4965" d="M48 39.1c-2.5 0-3.8-1.7-3.8-5.5V33c0-3.7 1.5-5.5 3.8-5.5 1.8 0 2.8 1.2 3.1 3h5c-.4-4.9-4-7.1-8.2-7.1-5 0-9 3.4-9 9.8v.2c0 6.4 3.8 9.6 9 9.6 5.1 0 8-3.1 8.3-7.3h-4.7c-.3 2.1-1.7 3.4-3.5 3.4z"/><path id="path4967" d="M67.7 39.2c-2.3 0-3.7-1.3-3.9-4.7H76v-2.2c0-6.2-3.9-8.9-8.6-8.9-5.1 0-9 3.5-9 9.8v.4c0 6.3 3.7 9.5 9.1 9.5 4.9 0 7.9-2.7 8.4-6.3H71c-.2 1.5-1.7 2.6-3.3 2.4zM67.4 27c2.1 0 3.4 1.2 3.5 4h-7c.4-3 1.9-3.9 3.5-4z"/><path transform="translate(-2.2 -1.7)" id="polygon4969" class="st0" d="M66 32.7h.1z"/><path id="path4971" d="M90.2 23.4c-2.4-.1-4.6 1.1-5.7 3.2v-2.8h-5.2v18.8h5.2v-12c.1-1.7 1.6-3.1 3.3-3 1.9 0 2.8 1 2.8 3.2v11.8h5.3V30c0-4.6-2.3-6.6-5.7-6.6z"/><path id="path4973" d="M105.7 36.6v-8.9h3.6v-3.9h-3.6v-5.7l-5.2 2.2v3.5h-2.3v3.9h2.2v9.5c0 3.8 1.9 5.7 6 5.7 1 0 2-.1 3-.4v-4.1c-.6.2-1.2.3-1.8.3-1.2 0-1.9-.7-1.9-2.1z"/><path id="path4975" d="M123.8 35.5v.5c-.1 1.7-1.6 3.1-3.3 3-1.9 0-2.7-1-2.7-3.2v-12h-5.3v12.7c0 4.4 2.5 6.5 5.9 6.5 2.3.1 4.4-1.1 5.5-3.2v2.8h5.3V23.8h-5.3z"/><path id="path4977" d="M138.2 27.2v-3.5H133v18.8h5.2v-9.7c0-3.1 2.1-4.2 5.7-4.2v-5.2c-2.6 0-4.9 1.5-5.7 3.8z"/><path id="path4979" d="M163.1 32.2c0-6.2-3.9-8.8-8.6-8.8-5.1 0-9 3.5-9 9.8v.4c0 6.3 3.7 9.5 9.1 9.5 4.9 0 7.8-2.7 8.4-6.3h-4.9c-.4 1.6-1.9 2.6-3.5 2.5-2.3 0-3.7-1.3-3.9-4.7h12.2v-2.4zM150.9 31c.4-3.1 1.9-4 3.6-4 2.1 0 3.4 1.2 3.5 4z"/></svg>