<svg version="1.2" xmlns="http://www.w3.org/2000/svg" viewBox="0 0 856 582" width="856" height="582">
	<title>hero-carousel-3-svg</title>
	<style>
		.s0 { fill: #e6e6e6 } 
		.s1 { fill: #3f3d56 } 
		.s2 { fill: #cccccc } 
		.s3 { fill: #0ea2bd } 
		.s4 { fill: #f2f2f2 } 
		.s5 { fill: #ff6584 } 
		.s6 { fill: #a0616a } 
		.s7 { fill: #2f2e41 } 
		.s8 { opacity: .2;fill: #000000 } 
	</style>
	<path id="Layer" class="s0" d="m519.7 326.2q1.1 0 2.1 0.5q1.1 0.4 1.8 1.1q0.8 0.8 1.2 1.8q0.4 1 0.4 2.1v53.2h105.5c1.5 0 2.9 0.6 3.9 1.7c1.1 1 1.6 2.4 1.6 3.8c0 1.5-0.5 2.9-1.6 3.9c-1 1.1-2.4 1.6-3.9 1.6h-105.5v184h-11v-248.2q0-1.1 0.5-2.1q0.4-1 1.2-1.8q0.7-0.7 1.7-1.1q1-0.5 2.1-0.5z" />
	<path id="Layer" class="s1" d="m226.1 578.7l-19.8 0.5q-1.1 0.1-2.2 0q-1.1-0.1-2.2-0.5q-1.1-0.3-2.1-0.7q-1-0.5-2-1.1c-2.1-1.6-3.1-3.8-2.7-6l3.9-19.6c0.8-3.7 5.3-6.5 10.8-6.6l11-0.3c5.5-0.2 10.1 2.3 11.1 6l5 19.4c0.5 2.1-0.3 4.3-2.4 6.1q-0.9 0.6-1.9 1.2q-1 0.5-2 0.9q-1.1 0.3-2.2 0.5q-1.1 0.2-2.3 0.2z" />
	<path id="Layer" class="s1" d="m346.8 578.1l-19.9 0.6q-1.1 0-2.2-0.1q-1.1-0.1-2.2-0.4q-1.1-0.3-2.1-0.8q-1-0.5-1.9-1.1c-2.2-1.6-3.2-3.8-2.7-5.9l3.9-19.7c0.7-3.7 5.2-6.5 10.7-6.6l11-0.3c5.5-0.2 10.2 2.4 11.1 6l5 19.4c0.5 2.2-0.3 4.4-2.4 6.1q-0.9 0.7-1.9 1.2q-1 0.5-2 0.9q-1.1 0.4-2.2 0.5q-1.1 0.2-2.2 0.2z" />
	<path id="Layer" class="s1" d="m157.3 411.6c-0.9-0.4-1.7-1-2.1-1.9c-0.5-0.9-0.6-1.9-0.5-2.9c0.2-0.9 0.7-1.8 1.5-2.4c0.7-0.7 1.7-1.1 2.7-1.1l225.4-6.2q0.9 0 1.7 0.3q0.8 0.3 1.4 0.9q0.7 0.6 1 1.4q0.4 0.7 0.4 1.6q0 0.9-0.3 1.7q-0.3 0.8-0.9 1.4q-0.6 0.6-1.4 1q-0.8 0.3-1.6 0.4l-225.5 6.2q-0.2 0-0.5 0q-0.2-0.1-0.4-0.1q-0.3 0-0.5-0.1q-0.2-0.1-0.4-0.2z" />
	<path id="Layer" class="s0" d="m176 338.8l64.5-1.8l6 217.6l-64.4 1.8z" />
	<path id="Layer" class="s2" d="m242.1 333.1l2.7 191.8l-15.1-4.3v-153.8l12.4-33.7z" />
	<path id="Layer" class="s1" d="m230.6 308.3l0.4 14.7l-43.7 1.2l-0.4-14.7c-0.2-8.2 9-29 21-29.4c12.1-0.3 22.4 20 22.7 28.2z" />
	<path id="Layer" class="s1" d="m176.9 428.9c-1.1 0-2.2-0.2-3.3-0.6c-1-0.4-2-1-2.8-1.7c-0.8-0.8-1.5-1.7-1.9-2.7c-0.5-1.1-0.7-2.2-0.8-3.3l-0.6-24c-0.1-2.2 0.8-4.4 2.3-6c1.6-1.7 3.7-2.6 5.9-2.7c2.3-0.1 4.5 0.8 6.1 2.3c1.7 1.6 2.6 3.7 2.7 6l0.6 23.9c0.1 1.2-0.1 2.3-0.5 3.3c-0.4 1.1-1 2-1.8 2.8c-0.8 0.8-1.7 1.5-2.7 1.9c-1 0.5-2.1 0.7-3.2 0.8z" />
	<path id="Layer" class="s1" d="m193.2 339.3l-0.3-15.9l4.2-0.1l0.3 15.8l3.8 230.4l-4.2 0.1" />
	<path id="Layer" class="s0" d="m247.9 376.4l-74.8 2c-7.1-8.7-7.7-45.8 7.2-52.8l5.8-9.9l45-2.2l5.3 10.4c7.4 6.3 11.2 43.2 11.5 52.5z" />
	<path id="Layer" class="s3" d="m219.8 358.6l-18.9 0.5c-3.7 0.1-6.8-4.6-7-10.6c-0.1-5.9 2.7-10.8 6.4-10.9l18.9-0.5c3.6-0.1 6.7 4.6 6.9 10.6c0.1 5.9-2.7 10.8-6.3 10.9z" />
	<path id="Layer" class="s0" d="m183.2 465.6l-0.4 74.4l-45.4 15.1l6.8-62l39-27.5z" />
	<path id="Layer" class="s0" d="m300.5 336.1l64.4-1.8l6 217.6l-64.4 1.8z" />
	<path id="Layer" class="s2" d="m302 333.8l13.3 33.4l3.9 153.7l-14.9 4.7l-2.3-191.8z" />
	<path id="Layer" class="s0" d="m397.1 273.9c-4.6 0-8.4-5.1-8.4-11.3c0-6.3 3.8-11.3 8.4-11.3c4.7 0 8.5 5 8.5 11.3c0 6.2-3.8 11.3-8.5 11.3z" />
	<path id="Layer" class="s1" d="m353.7 305.6l0.4 14.8l-43.6 1.2l-0.5-14.8c-0.2-8.1 9-29 21.1-29.3c12-0.3 22.4 20 22.6 28.1z" />
	<path id="Layer" class="s1" d="m343.6 344.2l-0.3-15.8l4.1-0.1l0.3 15.8l3.8 230.3l-4.2 0.2" />
	<path id="Layer" class="s0" d="m371 373.7l-74.7 2.1c-1.3-7.9 0.4-44.6 7.1-52.9l5.8-9.9l45.1-2.2l5.3 10.5c13.3 1.1 17.9 37.2 11.4 52.4z" />
	<path id="Layer" class="s3" d="m343 359.3l-18.9 0.5c-3.7 0.1-6.8-5.4-7-12.2c-0.2-6.9 2.7-12.5 6.3-12.6l18.9-0.5c3.7-0.1 6.8 5.4 7 12.2c0.2 6.8-2.7 12.5-6.3 12.6z" />
	<path id="Layer" class="s0" d="m368.1 449.7l37.6 29.2l4 62.3l-44.7-17.2l3.1-74.3z" />
	<path id="Layer" class="s4" d="m357.6 161.1c-40.4 0-86.9-44.8-128-23.5c-124.4 64.5-107.3-43.5-143-83.6l1.2-2.4c27 103.3 51.5 267.7 142.4 83.2c22.7-46.2 97.4 25.3 141.4 23.2l0.1 2.8q-7 0.3-14.1 0.3z" />
	<path id="Layer" class="s4" d="m454.6 167.5c-32.3 24.4-96.4 16.7-116.2 58.5c-60.3 126.5-111.8 30.1-164.5 19.7l-0.5-2.6c52.8 4.4 109.4-2.4 163.7-19.7c49.1-15.5 92.9-38.7 126.7-66.9l1.8 2.2q-5.4 4.5-11 8.8z" />
	<path id="Layer" class="s0" d="m104.1 161.9c-4.6 0-8.4-5.1-8.4-11.3c0-6.3 3.8-11.3 8.4-11.3c4.7 0 8.5 5 8.5 11.3c0 6.2-3.8 11.3-8.5 11.3z" />
	<path id="Layer" class="s0" d="m366.1 69.9c-4.6 0-8.4-5.1-8.4-11.3c0-6.3 3.8-11.3 8.4-11.3c4.7 0 8.5 5 8.5 11.3c0 6.2-3.8 11.3-8.5 11.3z" />
	<path id="Layer" class="s0" d="m181.5 207.6c-3.9 2.6-7.8-3.5-3.9-6c3.9-2.6 7.8 3.6 3.9 6z" />
	<path id="Layer" class="s0" d="m324.5 6.6c-3.9 2.6-7.8-3.5-3.9-6c3.9-2.6 7.8 3.6 3.9 6z" />
	<path id="Layer" class="s0" d="m408.7 125.8l-0.3 1.6l-2.5-0.5l-0.5 2.5l-1.6-0.4l0.5-2.5l-2.5-0.5l0.4-1.6l2.5 0.5l0.5-2.5l1.6 0.4l-0.5 2.5l2.4 0.5z" />
	<path id="Layer" class="s5" d="m183.5 43.4c-5.9 0-10.7-4.7-10.7-10.7c0-5.9 4.8-10.7 10.7-10.7c6 0 10.7 4.8 10.7 10.7c0 6-4.7 10.7-10.7 10.7z" />
	<path id="Layer" class="s1" d="m284.4 47.3l0.4 14.8l-43.6 1.2l-0.4-14.8c-0.2-8.1 9-29 21-29.3c12.1-0.3 22.4 20 22.6 28.1z" />
	<path id="Layer" class="s1" d="m287.8 577.4l-19.8 0.6q-1.1 0-2.3-0.1q-1.1-0.1-2.2-0.4q-1-0.3-2.1-0.8q-1-0.5-1.9-1.1c-2.2-1.6-3.1-3.8-2.7-6l3.9-19.6c0.7-3.7 5.3-6.5 10.8-6.6l10.9-0.3c5.5-0.2 10.2 2.4 11.2 6l4.9 19.4c0.6 2.1-0.3 4.3-2.3 6.1q-0.9 0.6-1.9 1.2q-1 0.5-2.1 0.9q-1 0.3-2.2 0.5q-1.1 0.2-2.2 0.2z" />
	<path id="Layer" class="s0" d="m232.2 114.8l64.5-1.8l12.1 439.9l-64.4 1.8z" />
	<path id="Layer" class="s1" d="m270.9 325.9l-0.3-15.8l4.1-0.1l0.3 15.8l3.8 230.3l-4.2 0.2" />
	<path id="Layer" class="s0" d="m309.3 153.3l-87.3 2.4c-1.5-9.2 0.5-52.1 8.3-61.7l2.2-11.5l60.3-1.7l3.1 11.2c8.7 7.4 13.2 50.4 13.4 61.3z" />
	<path id="Layer" class="s0" d="m294.7 82.2l-62.2 1.7c-2.3 0.1-4.2-1.1-4.3-2.7q0-0.1 0-0.2q0 0 0-0.1q0.1-0.1 0.1-0.2q0-0.1 0-0.2l9.7-29.7c0.4-1.3 2-2.2 4-2.3l41.2-1.1c2-0.1 3.7 0.8 4.1 2l11.3 29.2c0.6 1.5-0.7 3-2.9 3.5q-0.2 0-0.3 0q-0.1 0-0.2 0q-0.2 0.1-0.3 0.1q-0.1 0-0.2 0z" />
	<path id="Layer" class="s1" d="m238.6 323.9q-0.2-0.1-0.4-0.2q-0.2-0.1-0.4-0.2q-0.2-0.1-0.4-0.2q-0.2-0.2-0.4-0.3q-0.5-0.4-0.9-0.8q-0.5-0.5-0.8-1.1q-0.3-0.5-0.5-1.2q-0.1-0.6-0.2-1.2l-2.2-81.9c-0.1-3.4 3.2-6.2 7.4-6.3l55.7-1.6c4.2-0.1 7.6 2.6 7.7 6l2.3 81.8q0 0.7-0.2 1.3q-0.1 0.6-0.4 1.2q-0.3 0.6-0.7 1.1q-0.4 0.5-0.9 0.9q-0.5 0.4-1.1 0.8q-0.7 0.3-1.3 0.6q-0.7 0.2-1.4 0.4q-0.7 0.1-1.4 0.1l-55.7 1.5q-0.5 0-1 0q-0.5 0-0.9-0.1q-0.5-0.1-1-0.2q-0.5-0.2-0.9-0.4z" />
	<path id="Layer" class="s3" d="m274.3 76.9l-18.9 0.5c-3.7 0.1-6.8-4-6.9-9.2c-0.2-5.1 2.7-9.4 6.3-9.5l18.9-0.5c3.7-0.1 6.8 4 6.9 9.2c0.2 5.1-2.7 9.4-6.3 9.5z" />
	<path id="Layer" class="s0" d="m726.7 564.9c1.5 1.5 2.3 3.5 2.3 5.6c0 2.2-0.8 4.2-2.3 5.7c-1.5 1.5-3.6 2.3-5.7 2.3h-60c-2.1 0-4.1-0.8-5.6-2.3c-1.5-1.5-2.4-3.5-2.4-5.7c0-2.1 0.9-4.1 2.4-5.6c1.5-1.5 3.5-2.4 5.6-2.4h22v-159.8c-18.7-1.3-32.8-6.9-32.8-13.8c0-7.7 18.2-14 40.5-14c22.4 0 40.5 6.3 40.5 14c0 6.8-13.8 12.4-32.2 13.8v159.8h22c2.1 0 4.2 0.9 5.7 2.4z" />
	<path id="Layer" class="s6" d="m676.8 481.4l-7.2 7.8l-33.8-24.1l10.7-11.6l30.3 27.9z" />
	<path id="Layer" class="s7" d="m658.5 499.5q0.2-1.3 0.7-2.5q0.4-1.3 1.1-2.4q0.7-1.1 1.6-2.1l0.7-7.9l0.4-0.1l1.9-0.9l9.2-4.4l0.2-0.2l1.8-2l10.2 9.4l-13.8 15l-9.5 10.4l-0.3-0.3q-1-0.9-1.8-2q-0.7-1.1-1.3-2.3q-0.6-1.2-0.9-2.4q-0.3-1.3-0.3-2.7q-0.1-1.3 0.1-2.6z" />
	<path id="Layer" class="s6" d="m714.3 559.9l-10.2 3.1l-16.9-37.9l15.1-4.6l12 39.4z" />
	<path id="Layer" class="s7" d="m686.3 573.4c0.2-1.7 0.7-3.4 1.5-5c0.8-1.5 2-2.9 3.3-4c1.4-1.1 3-2 4.6-2.5l4.7-6.4h0.3l12.3 1.2l0.3-0.1l2.6-0.8l4 13.2l-33 10.1l-0.1-0.5c-0.5-1.6-0.7-3.4-0.5-5.2z" />
	<path id="ad16ec3e-8c70-4d69-a6df-f9bf45b483f6-32" class="s7" d="m704.3 370.1l-17.3 91.6c0.2 8.3 21.8 66.1 21.8 66.1l-20.7 8.1c0 0-32.9-70.1-31.7-78.2l2.2-15.5l1.4-43.5c-5.8-0.4-14.1 7.7-21.7 17.1c-1.3 1.5-5.8 1.2-7 2.8q-2.1 2.8-3.9 5.8q-1.9 3-3.4 6.2q-1.6 3.2-2.9 6.4q-1.4 3.3-2.4 6.7h-12.8c-41.2-19.5 24.1-82.6 24.1-82.6z" />
	<path id="Layer" class="s3" d="m625.1 358.9c2-3.8 6.5-8.6 10-13.1c3.9-5 4.6-11.7 4.6-11.7l-1.6-5.7l1.4-3.5l-0.5-25.9v-3.2l-13.6-41.2l-0.1-0.3l28.9-18.5l4.3-6.1q0.4-0.5 0.9-0.9q0.5-0.4 1-0.7q0.6-0.2 1.2-0.4q0.6-0.1 1.2-0.1h16.1q0.8 0 1.6 0.3q0.7 0.2 1.4 0.7q0.6 0.4 1.1 1q0.5 0.6 0.8 1.4l1.3 3.4l24.5 12.1l0.4 0.2l0.3 0.6l-7.5 47.8c0 0 0.3 3.1 0.7 8.1c0.7 7.8 1.8 20.1 2.6 32.1c0.1 1.8-2.1 3.4-2 5.2c0.1 2.3 2.6 4.8 2.7 7c0.6 11.9 0.7 21.8-0.3 24.1c-0.3 0.8-1.3 1.3-2.9 1.7c-12.4 3.3-60.4-3.6-75.1-6.9q-0.4-0.1-0.7-0.2q-0.4-0.1-0.7-0.2q-0.4-0.1-0.7-0.3q-0.3-0.1-0.6-0.3q-0.2-0.1-0.4-0.2q-0.2-0.2-0.3-0.3q-0.2-0.2-0.3-0.3q-0.2-0.2-0.3-0.4c-0.9-1.4-0.6-3.2 0.6-5.3z" />
	<path id="ef5568b9-6037-4ec0-9cfc-fa22633e4b80-33" class="s7" d="m621.5 429.2l9.7 8.7q2.8 1.2 5.5 2.7q2.6 1.6 5.1 3.4q2.4 1.9 4.6 4q2.2 2.2 4.1 4.6l6.3 8l-12.2 13.1l-5.1-4.8c-1.1-2.1-33.2-24.6-33.2-24.6l-3.5-4.4z" />
	<path id="Layer" class="s6" d="m718.4 379.1l-5.8-56.5l-1.6-23.3l16.4-3c0 0-0.7 16.7 1.5 26.1c2.1 9.2 0.3 55.5 0.1 56.7c2.5 2.2 3.3 5.7 2.2 8.8c-1.2 3.1-4.2 5.1-7.5 5.1c-3.3 0-6.2-2-7.4-5.1c-1.2-3.1-0.3-6.6 2.1-8.8z" />
	<path id="Layer" class="s3" d="m709.6 246.5l0.4 0.2l0.3 0.6l5.9 9.5q0 0 0 0c2.4 2.6 4 6.3 6.7 10c8.7 11.7 9.6 40.2 9.4 55.8c-0.1 0.3 0.2 0.6 0.5 0.9q1.1 1 1.8 2.3q0.7 1.3 0.9 2.8q0.2 1.5-0.1 2.9q-0.3 1.5-1 2.8l-4.6 0.9l-15.6 3.3l-0.8 0.1l-1.9-7.3l-2.1-2.3l-4.3-22.4l-1.6-3.4l-4.6-9.8z" />
	<path id="af7fa85c-211d-4c02-a612-cf38cfa53f1c" class="s6" d="m672.1 223.6c-11.8 0-21.4-9.6-21.4-21.5c0-11.8 9.6-21.4 21.4-21.4c11.9 0 21.5 9.6 21.5 21.4c0 11.9-9.6 21.5-21.5 21.5z" />
	<path id="Layer" class="s7" d="m688.3 217.1q-0.2 0.3-0.5 0.6q-0.3 0.2-0.6 0.4q-0.4 0.2-0.7 0.4q-0.4 0.1-0.8 0.2c-0.2 0-2.4-1.6-1.8-1.9c0.5-0.3 1-0.8 1.3-1.3c0.4-0.5 0.5-1.2 0.6-1.8c0-0.6-0.2-1.2-0.5-1.8c-0.3-0.6-0.7-1-1.3-1.4q-0.1 0-0.3-0.1q-0.1-0.1-0.2-0.1q-0.2-0.1-0.3-0.2q-0.2 0-0.3-0.1q-0.2 0-0.3-0.1q-0.2-0.1-0.3-0.1q-0.2-0.1-0.3-0.2q-0.2-0.1-0.3-0.1q-0.7-0.5-1.2-1.1q-0.5-0.6-0.9-1.4q-0.3-0.7-0.4-1.5q-0.1-0.8-0.1-1.6q0.1-0.7 0.3-1.4q0.1-0.7 0.3-1.3q0.3-0.7 0.5-1.4q0.3-0.6 0.6-1.3q-3.5-0.1-6.9-0.6q-3.4-0.4-6.8-1.2q-3.4-0.7-6.7-1.8q-3.3-1.1-6.5-2.5q-0.4-0.1-0.7-0.3q-0.4-0.2-0.8-0.4q-0.4-0.2-0.7-0.5q-0.4-0.2-0.8-0.5q-0.3-0.3-0.6-0.6q-0.8-0.6-1.4-1.3q-0.6-0.8-1.2-1.6q-0.5-0.8-1-1.7q-0.4-0.8-0.7-1.8q-0.1-0.2-0.1-0.5q0-0.2 0.1-0.5q0.1-0.2 0.2-0.4q0.2-0.3 0.4-0.4q0.1-0.1 0.3-0.2q0.2-0.1 0.3-0.1q0.2 0 0.4-0.1q0.2 0 0.3 0.1l-0.1-1q-0.1-0.4 0.1-0.8q0.2-0.5 0.5-0.8q0.4-0.3 0.8-0.3q0.5-0.1 0.9 0.1l1.1 0.4l0.1-0.8q0-0.4 0.2-0.8q0.3-0.4 0.7-0.6q0.4-0.2 0.8-0.2q0.5 0 0.8 0.3q0.2 0.1 0.4 0.1q0.2 0.1 0.4 0.1q0.2 0.1 0.4 0q0.2 0 0.4 0q0.2-0.1 0.4-0.2q0.1-0.1 0.3-0.2q0.1-0.2 0.2-0.3q0.2-0.2 0.2-0.4l0.8-1.8l0.1-0.1c2.6-2.9 6.8-4.6 11.6-4.5c4.2 0 8.3 1.2 12.3 2.4q0.6 0.1 1.2 0.3q0.7 0.2 1.3 0.5q0.5 0.3 1.1 0.6q0.6 0.4 1.1 0.8q0.4 0.4 0.8 0.9q0.3 0.5 0.5 1.1q0.2 0.6 0.2 1.2q0 0.6-0.2 1.2c4.3-0.5 8.1 2.8 9.6 6.3c1.8 4.1 1.3 8.8 0.7 12.4c-1.5 8.5-4.6 15.1-9.3 19.6z" />
	<path id="Layer" class="s4" d="m791.4 528.8l0.9-21q3.7-1.9 7.5-3.4q3.8-1.5 7.8-2.5q4-1 8.1-1.5q4.1-0.5 8.2-0.5c-15.2 12.4-13.3 36.2-23.6 52.9q-2.4 3.9-5.6 7.1q-3.3 3.3-7.1 5.7q-3.9 2.4-8.2 4q-4.3 1.5-8.9 2l-12.7 7.8c-0.8-4.9-1.2-9.8-1-14.7c0.2-4.9 0.9-9.8 2.2-14.5c1.2-4.8 2.9-9.4 5.2-13.8c2.2-4.4 4.9-8.5 8-12.3q1.3-1.6 2.8-3.1q1.4-1.5 2.9-2.9q1.5-1.4 3.1-2.7q1.6-1.3 3.3-2.5c3 8 7.1 15.9 7.1 15.9z" />
	<path id="Layer" class="s1" d="m366.5 423.6c-1.1 0-2.2-0.2-3.3-0.6c-1-0.4-2-1-2.8-1.8c-0.8-0.7-1.4-1.6-1.9-2.7c-0.5-1-0.7-2.1-0.7-3.2l-0.7-24c-0.1-2.2 0.8-4.4 2.3-6.1c1.6-1.6 3.7-2.5 6-2.6c2.2-0.1 4.4 0.8 6 2.3c1.7 1.6 2.6 3.7 2.7 5.9l0.7 24c0 1.2-0.2 2.3-0.6 3.3c-0.4 1-1 2-1.8 2.8c-0.7 0.8-1.7 1.5-2.7 1.9c-1 0.5-2.1 0.7-3.2 0.8z" />
	<path id="Layer" class="s2" d="m741.4 511.2q-19.4 0-42.5-1.4c-79.6-5.1-182.7-22.6-290.4-49.5c-107.6-26.9-206.9-59.8-279.6-92.7c-35.4-16.1-62.5-31.3-80.7-45.2c-19.2-14.7-27.7-27.6-25-38.1c5.1-20.7 50.7-25.2 88-25.3l0.1 3c-51.3 0.2-81.6 8.3-85.2 23c-4.7 18.6 33.3 47.7 104.1 79.8c72.5 32.9 171.6 65.8 279 92.6c107.5 26.8 210.4 44.3 289.9 49.4c77.6 4.9 124.7-2.9 129.4-21.6c3.8-15.5-21.6-38.3-71.7-64.2l1.4-2.7c36.4 18.9 78.6 45.9 73.2 67.6c-2.6 10.6-16.1 18-40 22c-13.7 2.2-30.4 3.3-50 3.3z" />
	<path id="Layer" class="s2" d="m56.1 491.6c-10.3 0-16.9-2.6-19.9-7.6c-5.8-10 3.9-27.5 28.9-52.1l2.1 2.2c-23.2 22.8-33.3 40-28.4 48.4c3.1 5.3 12.3 7.2 26.6 5.5c14.3-1.7 33.1-6.8 56.1-15.1c47.3-17 106.6-45.8 167.1-81c60.4-35.2 114.7-72.7 152.9-105.4c7.3-6.3 14-12.3 19.8-17.9q2.8-2.8 5.6-5.6q2.7-2.8 5.3-5.7q2.7-2.9 5.2-6q2.5-3 4.9-6.1c8.5-11.6 11.4-20.6 8.3-25.9c-5.2-8.9-26.9-8.1-61.1 2.3l-0.9-2.8c36.8-11.2 58.5-11.5 64.6-1c3.8 6.5 0.9 16.3-8.5 29.2q-2.4 3.1-5 6.2q-2.5 3.1-5.2 6.1q-2.7 2.9-5.4 5.8q-2.8 2.9-5.7 5.6c-5.9 5.7-12.6 11.8-19.9 18.1c-38.4 32.8-92.8 70.4-153.4 105.7c-60.6 35.3-120.1 64.1-167.6 81.2c-23.2 8.4-42.2 13.5-56.7 15.3q-1.2 0.1-2.4 0.2q-1.2 0.1-2.5 0.2q-1.2 0.1-2.4 0.1q-1.2 0.1-2.4 0.1z" />
	<path id="Layer" class="s0" d="m604.4 368.6q0.4 0.3 0.7 0.6q0.2 0.4 0.3 0.9q0 0.4-0.2 0.8c0.5 1.5 0 9.9-0.1 11.5l-0.4 1q-0.1 0.2-0.3 0.4q-0.1 0.2-0.4 0.3q-0.2 0.1-0.4 0.2q-0.3 0.1-0.5 0.1c-0.8-0.2-65 1-65.7 0.6q-0.4-0.2-0.7-0.5q-0.3-0.4-0.4-0.8q-0.1-0.4 0.1-0.9q0.1-0.4 0.4-0.7c0.3-0.1 12.7-16 13-14.7c6.6-0.3 46.4 0.9 53.8 1q0.5 0 0.8 0.2z" />
	<path id="Layer" class="s8" d="m605.1 382.4c-0.4 0.9-0.8 2-2 2l-65 0.7q-0.5 0-0.9-0.2q-0.4-0.2-0.7-0.6q-0.2-0.4-0.2-0.9q0-0.5 0.2-0.9z" />
	<path id="Layer" class="s0" d="m541.4 381.9q-0.2 0.4-0.5 0.8q-0.3 0.3-0.6 0.6q-0.4 0.3-0.9 0.5q-0.4 0.1-0.9 0.2q-0.3 0.1-0.7 0q-0.4-0.1-0.7-0.3q-0.4-0.2-0.6-0.5q-0.2-0.4-0.3-0.8l-2.1-15.1c-0.4-11.8-18.3-88-21.1-101.4c-0.3-2.2 3.2-2.8 4.7-2l1 0.8l11.9 14.6c1.4 0.7 18.8 86.7 19.5 87.9c0.8 0.3-8.5 14.2-8.7 14.7z" />
	<path id="Layer" class="s8" d="m518.7 264.7l22.7 117.2c-0.7 1.9-4.3 3.3-5.1 0.7c0 0-23.3-116.6-23.3-116.7c-0.3-2.8 4.4-2.9 5.7-1.2z" />
	<path id="Layer" class="s3" d="m519.4 269.5l11.5 16.1l13 61.5l-6 5.2l-18.5-82.8z" />
	<path id="Layer" class="s7" d="m596.4 375.7q0-0.5 0.1-1.1q0.1-0.5 0.1-1q0.1-0.5 0.1-1.1c0.2-1.8 0.7-3.5 2-3.4c2 0 1.6 2.7 1.1 5q-0.1 0.3-0.2 0.7q0 0.3-0.1 0.6q-0.1 0.4-0.1 0.7q0 0.4-0.1 0.7l-3.1-0.1q0.1-0.5 0.2-1z" />
	<path id="Layer" class="s7" d="m577.9 372.1c0-0.5 0-1.2 0-1.8c0.1-1.1 0.5-2 1.7-2q0.1 0 0.2 0q0.1 0.1 0.2 0.1q0 0 0.1 0q0.1 0 0.2 0.1c1.3 0.6 0.7 2.9 0.7 4h-1l-2.1-0.1q0-0.1 0-0.3z" />
	<path id="Layer" class="s7" d="m571.5 371.8c0.1-1.4-0.2-3.8 1.7-3.7c2.1 0 1.5 2.9 1.5 4.2h-1.1l-2.1-0.1q0-0.2 0-0.4z" />
	<path id="Layer" class="s7" d="m565.1 371.6c0.1-1.4-0.2-3.9 1.8-3.8c2.1 0.1 1.4 2.9 1.4 4.2h-1l-2.2-0.1q0-0.1 0-0.3z" />
	<path id="Layer" class="s7" d="m558.8 371.3c0-1.4-0.2-3.8 1.7-3.7c2.1 0 1.4 2.9 1.4 4.2l-1-0.1h-2.2q0.1-0.2 0.1-0.4z" />
	<path id="Layer" class="s7" d="m552.4 371.1c0-1.3-0.2-3.4 1.2-3.7q0.1 0 0.1-0.1q0.1 0 0.2 0q0 0 0.1 0q0.1 0 0.1 0q0.1 0 0.2 0q0 0 0.1 0q0 0 0.1 0.1q0 0 0.1 0c1.5 0.4 0.9 2.9 1 4.1h-1.1l-2.1-0.1q0-0.2 0-0.3z" />
	<path id="Layer" class="s7" d="m589.8 368.5q0 0 0-0.1q0 0 0-0.1q0.1 0 0.1-0.1q0-0.1 0-0.1c0.1-0.9 0.6-1.5 1.6-1.5c1 0.1 1.4 0.7 1.5 1.6q0 0.2 0 0.5q0 0.3 0 0.6q0 0.3 0 0.6q0 0.3-0.1 0.6q0 0.2 0 0.4l-3.2-0.2c0.1-0.5 0-1.4 0.1-2.2z" />
	<path id="Layer" class="s7" d="m583.5 367.9c0.1-0.9 0.6-1.6 1.6-1.5c1.1 0 1.4 0.7 1.5 1.6q0 0.3 0 0.7q0 0.3 0 0.6q0 0.3 0 0.6q0 0.4-0.1 0.7l-3.1-0.1c0-0.7-0.1-1.7 0.1-2.6z" />
	<path id="Layer" class="s7" d="m577.1 367.8c0.1-1 0.5-1.7 1.6-1.7c1.1 0.1 1.5 0.8 1.5 1.8q0.1 0 0.1 0.1q0 0.1 0 0.2q0 0 0 0.1q0 0.1 0 0.2c0 0.7-0.1 1.4-0.1 1.8h-2.3l-0.9-0.1c0-0.6 0-1.6 0.1-2.4z" />
	<path id="Layer" class="s7" d="m591.5 372.4c2.1 0 1.5 2.9 1.5 4.2l-3.2-0.1c0.1-1.3-0.4-4.2 1.7-4.1z" />
	<path id="Layer" class="s7" d="m585.2 372.1c2.1 0.1 1.4 2.9 1.4 4.2l-3.2-0.1c0.1-1.3-0.3-4.2 1.8-4.1z" />
	<path id="Layer" class="s7" d="m577.9 372.1q0.1-0.1 0.2-0.1q0.1-0.1 0.2-0.1q0.1 0 0.3 0q0.1 0 0.2 0q0.2 0 0.4 0q0.1 0 0.3 0.1q0.2 0.1 0.3 0.2q0.1 0.1 0.2 0.3c0.6 0.9 0.2 2.6 0.2 3.6l-3.2-0.1c0.1-1.1-0.1-3.2 0.9-3.9z" />
	<path id="Layer" class="s7" d="m571.5 371.8q0.1 0 0.2-0.1q0.1 0 0.3-0.1q0.1 0 0.2 0q0.1 0 0.2 0q0.2 0 0.4 0q0.2 0.1 0.3 0.2q0.2 0 0.3 0.2q0.2 0.1 0.2 0.3c0.6 0.9 0.3 2.6 0.3 3.5l-3.2-0.1c0.1-1.1-0.2-3.2 0.8-3.9z" />
	<path id="Layer" class="s7" d="m565.1 371.6q0.1-0.1 0.3-0.1q0.1-0.1 0.2-0.1q0.1 0 0.2 0q0.1-0.1 0.3 0q0.1 0 0.3 0q0.2 0 0.4 0.1q0.1 0.1 0.2 0.2q0.2 0.1 0.3 0.3c0.5 0.9 0.2 2.6 0.2 3.6l-3.2-0.2c0.1-1-0.2-3.1 0.8-3.8z" />
	<path id="Layer" class="s7" d="m558.8 371.3q0.1 0 0.2-0.1q0.1 0 0.2-0.1q0.1 0 0.3 0q0.1 0 0.2 0q0.2 0 0.4 0q0.1 0.1 0.3 0.2q0.2 0 0.3 0.2q0.1 0.1 0.2 0.2c0.6 1 0.2 2.7 0.2 3.6l-3.2-0.1c0.1-1.1-0.2-3.2 0.9-3.9z" />
	<path id="Layer" class="s7" d="m552.4 371.1q0.1-0.1 0.2-0.1q0.1-0.1 0.2-0.1q0.2 0 0.3-0.1q0.1 0 0.2 0.1q0.2-0.1 0.4 0q0.2 0 0.3 0.1q0.2 0.1 0.3 0.2q0.1 0.1 0.2 0.3c0.6 0.9 0.2 2.6 0.3 3.6l-3.2-0.2c0.1-1-0.2-3.1 0.8-3.8z" />
	<path id="Layer" class="s6" d="m586.7 374.7c-2.2 2.5-5.6 3.4-8.7 2.3c-3.1-1.1-5.3-4-5.3-7.3c-0.1-3.3 1.8-6.3 4.9-7.5c0.3-1.3 13.9-45.5 19-53.5c5.1-8.2 10.1-24.1 10.1-24.1l14.4 8.2l-9.2 21.5l-24.3 51.4c1.6 2.9 1.2 6.5-0.9 9z" />
	<path id="Layer" class="s3" d="m587.4 315.1q0.2-1.4 0.9-2.8q0.7-1.3 1.8-2.3q1.1-1 2.4-1.6c0.4-0.2 0.7-0.3 0.8-0.6c5-14.8 15.3-41.3 27.4-49.5c3.8-2.6 6.6-5.6 9.7-7.2v-0.1l17.5-2.6l-13.5 42.9l-10.1 10.4l-11.5 19.7l-2.8 1.5l-4.2 6.3l-18.4-11.1q-0.2-1.5 0-3z" />
</svg>